<svg width="31" height="32" viewBox="0 0 31 32" fill="none" xmlns="http://www.w3.org/2000/svg">
<path id="Star 5" d="M14.7117 16.0564L0.954364 20.5311L0.954217 20.5312L1.10873 21.0067L1.10887 21.0066L14.8689 16.5404L6.36984 28.246L6.36922 28.2469L6.36913 28.247L6.77364 28.5409L6.77373 28.5408L15.2807 16.8396L15.2852 31.3063V31.3065H15.7852V31.3063L15.7896 16.8396L24.2966 28.5408L24.2967 28.5409L24.7012 28.247L24.7011 28.2469L24.6997 28.245L16.2014 16.5404L29.9614 21.0066L29.9616 21.0067L30.1161 20.5312L30.1159 20.5311L16.3587 16.0564L30.1159 11.5817L30.1161 11.5816L29.9616 11.1061L29.9614 11.1061L16.2014 15.5724L24.7001 3.8672L24.7011 3.8659L24.7012 3.86577L24.2967 3.57188L24.2966 3.572L15.7896 15.2732L15.7852 0.806474V0.806319H15.2852V0.806474L15.2807 15.2732L6.77373 3.572L6.77364 3.57188L6.36913 3.86577L6.36922 3.8659L14.8689 15.5724L1.10887 11.1061L1.10873 11.1061L0.954217 11.5816L0.954364 11.5817L14.7117 16.0564Z" stroke="#F1F0EA" stroke-width="0.5"/>
</svg>
