<svg width="110" height="110" viewBox="0 0 110 110" fill="none" xmlns="http://www.w3.org/2000/svg">
<path id="Star 8" d="M3.9059 75.3566L3.90609 75.3571L3.90628 75.3576L4.15662 75.9861L4.15676 75.9861L4.16041 75.9846L49.4285 57.9538L9.10315 85.3015L9.0975 85.3053L9.09738 85.3054L9.4771 85.8653L9.85671 86.4253L9.85683 86.4252L50.1937 59.0825L16.69 94.4596L16.6854 94.4644L16.6853 94.4645L17.1765 94.9297L17.6676 95.3951L17.6677 95.395L51.1837 60.0203L26.0649 101.778L26.0648 101.778L26.6445 102.127L27.2242 102.476L27.2243 102.476L27.23 102.466L52.3521 60.7233L36.7973 106.905L36.7973 106.905L37.4384 107.121L38.0795 107.337L38.0796 107.337L38.0842 107.323L53.6444 61.1587L48.3811 109.602L48.3809 109.604L48.3809 109.605L49.0535 109.678L49.726 109.751L49.726 109.751L55 61.3061L60.274 109.751L60.274 109.751L60.9465 109.678L61.6191 109.605L61.6191 109.604L61.6189 109.602L56.3556 61.1587L71.9204 107.337L71.9205 107.337L72.5616 107.121L73.2027 106.905L73.2027 106.905L73.202 106.903L57.6479 60.7233L82.77 102.466L82.7757 102.476L82.7758 102.476L83.3555 102.127L83.9352 101.778L83.9351 101.778L58.8163 60.0203L92.3323 95.395L92.3324 95.3951L92.8235 94.9297L93.3147 94.4645L93.3146 94.4644L93.31 94.4596L59.8063 59.0825L100.143 86.4252L100.143 86.4253L100.523 85.8653L100.903 85.3054L100.902 85.3053L100.899 85.3028L60.5715 57.9538L105.838 75.984L105.843 75.9861L105.843 75.9861L106.094 75.3576L106.344 74.7291L106.344 74.7291L61.0763 56.6871L109.166 64.5656L109.166 64.5657L109.275 63.898L109.276 63.8966L109.276 63.8952L109.385 63.2304L109.385 63.2304L61.2969 55.3414L109.956 52.6979L109.956 52.6979L109.919 52.0224L109.883 51.3468L109.883 51.3468L61.223 53.9798L108.176 40.9378L108.176 40.9378L107.995 40.2859L107.814 39.634L107.814 39.6341L60.8582 52.6659L103.91 29.8353L103.91 29.8352L103.593 29.2375L103.276 28.6398L103.276 28.6398L60.2195 51.4611L97.3496 19.9156L97.3568 19.9094L97.3569 19.9093L96.9189 19.3938L96.481 18.8781L96.4809 18.8782L59.3367 50.4218L88.8231 11.6244L88.8232 11.6242L88.2846 11.2149L87.746 10.8054L87.7459 10.8055L87.7407 10.8124L58.2511 49.5965L78.7079 5.36749L78.7079 5.36736L78.0939 5.08335L77.4799 4.79921L77.4799 4.79935L57.0136 49.024L67.4832 1.43558L67.4841 1.43138L67.4841 1.43123L66.8234 1.28587L66.1627 1.14036L3.9059 75.3566ZM3.9059 75.3566L3.65594 74.7291M3.9059 75.3566L3.6558 74.7291L3.65594 74.7291M3.65594 74.7291L48.9722 56.6791L48.9237 56.6871M3.65594 74.7291L48.9237 56.6871M48.9237 56.6871L48.9693 56.6689L0.834065 64.5656M48.9237 56.6871L0.834065 64.5656M0.834065 64.5656L0.724541 63.898L0.83392 64.5657L0.834065 64.5656ZM0.615161 63.2304L0.615017 63.2304L0.724081 63.8952L0.724238 63.8966L0.615161 63.2304ZM0.615161 63.2304L48.7521 55.3441M0.615161 63.2304L48.7031 55.3414M48.7031 55.3414L48.7521 55.3441M48.7031 55.3414L0.0441079 52.6979L0.0439616 52.6979L0.117216 51.3468L0.117362 51.3468L48.777 53.9798L1.82383 40.9378L1.82369 40.9378L2.18567 39.634L2.18581 39.6341L2.19021 39.6353L49.1418 52.6659L6.09001 29.8353L6.08988 29.8352L6.72367 28.6398L6.7238 28.6398L49.7805 51.4611L12.6432 19.9094L12.643 19.9093L13.519 18.8781L13.5191 18.8782L13.5226 18.8811L50.6633 50.4218L21.18 11.6285L21.1769 11.6244L21.1768 11.6242L22.254 10.8054L22.2541 10.8055L51.7488 49.5965L31.293 5.36938L31.2921 5.36749L31.2921 5.36736L32.5201 4.79921L32.5201 4.79935L52.9864 49.024L42.5168 1.43558L42.5159 1.43138L42.5159 1.43123L43.8373 1.14036L43.8374 1.14051L54.3182 48.7309L54.3235 7.32094e-05V-7.32094e-05H55.6765V7.32094e-05L55.6818 48.7309L66.1626 1.14051L55.6818 48.7799L48.7031 55.3414ZM48.7031 55.3414L48.7515 55.3335M48.7031 55.3414L48.7515 55.3335M48.7521 55.3441L48.8006 55.3361M48.7521 55.3441L49.9579 55.4096C49.9563 55.4095 49.9419 55.4082 49.9207 55.3982C49.9195 55.3977 49.9184 55.3971 49.9172 55.3965L49.9585 55.3988L49.9586 55.3988C49.9678 55.3993 49.977 55.3997 49.9862 55.4C49.9862 55.4 49.9862 55.4 49.9862 55.4C50.1794 55.4069 50.3524 55.3754 50.5038 55.3148C50.4886 55.5413 50.3411 55.7583 50.0527 55.8056L48.8006 55.3361M48.8006 55.3361L48.7515 55.3335" fill="#D3701D" stroke="#D3701D" stroke-width="1.35308"/>
</svg>
