<svg width="70" height="70" viewBox="0 0 70 70" fill="none" xmlns="http://www.w3.org/2000/svg">
<g id="Star 4/Default">
<path id="Star 4" d="M33.3485 35L1.55866 45.34L1.55836 45.3401L1.86738 46.2912L1.86768 46.2911L33.6639 35.9707L14.0243 63.0199L14.0231 63.0216L14.0229 63.0218L14.8319 63.6096L14.8321 63.6094L34.4897 36.5707L34.5 69.9998V70.0002H35.5V69.9998L35.5103 36.5707L55.1679 63.6094L55.1681 63.6096L55.9771 63.0218L55.9769 63.0216L55.9742 63.0179L36.3361 35.9707L68.1306 46.2905L68.1323 46.2911L68.1326 46.2912L68.4416 45.3401L68.4413 45.34L36.6515 35L68.4413 24.66L68.4416 24.6599L68.1326 23.7088L68.1323 23.7089L68.1306 23.7095L36.3361 34.0293L55.975 6.98104L55.9769 6.97842L55.9771 6.97817L55.1681 6.39039L55.1679 6.39064L35.5103 33.4293L35.5 0.000154642V-0.000154642H34.5V0.000154642L34.4897 33.4293L14.8321 6.39064L14.8319 6.39039L14.0229 6.97817L14.0231 6.97842L33.6639 34.0293L1.86768 23.7089L1.86738 23.7088L1.55836 24.6599L1.55866 24.66L33.3485 35Z" stroke="#FFFCB1"/>
</g>
</svg>
