<svg width="50" height="43" viewBox="0 0 50 43" fill="none" xmlns="http://www.w3.org/2000/svg">
<g id="Group 141">
<line id="Line 7" y1="-0.5" x2="59.8486" y2="-0.5" transform="matrix(0.759349 -0.650684 0.759349 0.650684 0.98584 39.9426)" stroke="#DEFFFC"/>
<path id="Star 4" d="M41.3454 34.9712L34.3298 37.2531L34.3297 37.2531L34.4533 37.6336L34.4534 37.6335L41.4704 35.356L37.136 41.3257L37.1359 41.3258L37.4595 41.5609L37.4596 41.5608L41.7977 35.5938L41.8 42.9711V42.9713H42.2V42.9711L42.2023 35.5938L46.5404 41.5608L46.5405 41.5609L46.8641 41.3258L46.864 41.3257L46.8639 41.3255L42.5296 35.356L49.5466 37.6335L49.5467 37.6336L49.6703 37.2531L49.6702 37.2531L42.6546 34.9712L49.6702 32.6893L49.6703 32.6892L49.5467 32.3088L49.5466 32.3089L42.5296 34.5864L46.8639 28.6169L46.864 28.6167L46.8641 28.6166L46.5405 28.3814L46.5404 28.3815L42.2023 34.3486L42.2 26.9713V26.9711H41.8V26.9713L41.7977 34.3486L37.4596 28.3815L37.4595 28.3814L37.1359 28.6166L37.136 28.6167L41.4704 34.5864L34.4534 32.3089L34.4533 32.3088L34.3297 32.6892L34.3298 32.6893L41.3454 34.9712Z" stroke="#DEFFFC" stroke-width="0.4"/>
</g>
</svg>
